<svg width="30" height="30" viewBox="0 0 30 30" fill="none" xmlns="http://www.w3.org/2000/svg">
<g clip-path="url(#clip0_69_742)">
<path d="M23.775 12.5V23.75H6.25002V6.25H17.5V3.75H6.27502C4.90002 3.75 3.77502 4.875 3.77502 6.25V23.75C3.77502 25.125 4.90002 26.25 6.27502 26.25H23.775C25.15 26.25 26.275 25.125 26.275 23.75V12.5H23.775ZM21.25 12.5L22.425 9.925L25 8.75L22.425 7.575L21.25 5L20.075 7.575L17.5 8.75L20.075 9.925L21.25 12.5ZM16.5625 13.4375L15 10L13.4375 13.4375L10 15L13.4375 16.5625L15 20L16.5625 16.5625L20 15L16.5625 13.4375Z" fill="black" fill-opacity="0.72"/>
</g>
<defs>
<clipPath id="clip0_69_742">
<rect width="30" height="30" fill="white"/>
</clipPath>
</defs>
</svg>
