<svg width="38" height="37" viewBox="0 0 38 37" fill="none" xmlns="http://www.w3.org/2000/svg">
<path fill-rule="evenodd" clip-rule="evenodd" d="M19.2254 4.07823C19.0764 4.05093 18.9237 4.05093 18.7748 4.07822C18.6303 4.1047 18.4798 4.17079 17.9276 4.43959L7.77722 9.38122C6.74864 9.88197 6.40134 10.0621 6.15426 10.3107C5.91687 10.5495 5.73611 10.8386 5.62531 11.1565C5.50997 11.4875 5.49999 11.8786 5.49999 13.0226L5.5 24.375C5.5 25.7875 5.50059 26.8018 5.56564 27.5979C5.62997 28.3853 5.7536 28.893 5.96323 29.3045C6.3707 30.1042 7.02087 30.7543 7.82056 31.1618C8.23199 31.3714 8.73973 31.495 9.52711 31.5594C10.3232 31.6244 11.3375 31.625 12.75 31.625L14.2917 31.625V26.3125C14.2917 23.7122 16.3997 21.6042 19 21.6042C21.6004 21.6042 23.7083 23.7122 23.7083 26.3125V31.625H25.25C26.6625 31.625 27.6768 31.6244 28.4729 31.5594C29.2603 31.4951 29.768 31.3714 30.1795 31.1618C30.9792 30.7543 31.6293 30.1042 32.0368 29.3045C32.2464 28.8931 32.37 28.3853 32.4344 27.5979C32.4994 26.8018 32.5 25.7875 32.5 24.375V13.0226C32.5 11.8786 32.49 11.4875 32.3747 11.1565C32.2639 10.8386 32.0831 10.5495 31.8457 10.3107C31.5987 10.0621 31.2514 9.88197 30.2228 9.38121L20.0725 4.43959C19.5204 4.17079 19.3699 4.1047 19.2254 4.07823ZM19 23.1042C17.2281 23.1042 15.7917 24.5406 15.7917 26.3125V32.055L15.7917 32.066C15.7917 32.1109 15.7918 32.1821 15.7865 32.2474C15.78 32.3271 15.7619 32.4615 15.6881 32.6063C15.5971 32.785 15.4517 32.9304 15.273 33.0214C15.1282 33.0952 14.9939 33.1132 14.9141 33.1198C14.8488 33.1251 14.7777 33.125 14.7328 33.125L14.7217 33.125L12.75 33.125H12.7166C11.3448 33.125 10.2693 33.125 9.40497 33.0544C8.52482 32.9825 7.79771 32.8336 7.13958 32.4983C6.05764 31.947 5.178 31.0674 4.62672 29.9855C4.29139 29.3273 4.14253 28.6002 4.07062 27.7201C4 26.8557 4 25.7803 4 24.4086V24.375L3.99999 13.0226C3.99999 12.9788 3.99998 12.9356 3.99996 12.893C3.99956 11.9297 3.99928 11.2643 4.20885 10.6629C4.39352 10.133 4.69479 9.65124 5.09044 9.25322C5.53941 8.80156 6.13782 8.51054 7.00408 8.08925C7.04241 8.07062 7.08125 8.05172 7.12064 8.03255L17.2711 3.09092C17.2969 3.07833 17.3225 3.06588 17.3477 3.05357C17.7868 2.83944 18.1322 2.67099 18.5044 2.60279C18.8321 2.54274 19.168 2.54274 19.4957 2.60279C19.8679 2.671 20.2134 2.83944 20.6524 3.05358C20.6777 3.06588 20.7032 3.07833 20.7291 3.09093L30.8794 8.03255C30.9188 8.05172 30.9576 8.07061 30.9959 8.08925C31.8622 8.51054 32.4606 8.80156 32.9096 9.25322C33.3052 9.65124 33.6065 10.133 33.7912 10.6629C34.0007 11.2643 34.0004 11.9297 34 12.893C34 12.9356 34 12.9788 34 13.0226V24.375V24.4086C34 25.7803 34 26.8557 33.9294 27.7201C33.8575 28.6002 33.7086 29.3273 33.3733 29.9855C32.822 31.0674 31.9424 31.947 30.8605 32.4983C30.2023 32.8336 29.4752 32.9825 28.5951 33.0544C27.7307 33.125 26.6553 33.125 25.2836 33.125H25.25H23.2783L23.2673 33.125C23.2224 33.1251 23.1513 33.1251 23.0859 33.1198C23.0062 33.1133 22.8718 33.0952 22.7271 33.0215C22.5483 32.9304 22.403 32.7851 22.3119 32.6063C22.2381 32.4616 22.2201 32.3272 22.2136 32.2475C22.2082 32.1821 22.2083 32.111 22.2083 32.066L22.2083 32.055V26.3125C22.2083 24.5406 20.7719 23.1042 19 23.1042Z" fill="white"/>
</svg>
