<svg width="30" height="33" viewBox="0 0 30 33" fill="none" xmlns="http://www.w3.org/2000/svg">
<path d="M28.9496 20.8158L25.9012 17.7355L25.9012 13.6549C25.8977 10.835 24.8596 8.11649 22.9875 6.02517C21.1154 3.93384 18.5424 2.61822 15.766 2.3327L15.766 -2.94006e-05L13.5138 -1.64724e-05L13.5138 2.33271C10.7374 2.61827 8.16434 3.93392 6.29225 6.02526C4.42016 8.11661 3.38199 10.8351 3.37848 13.655L3.37846 17.7356L0.329992 20.8159C0.118785 21.0293 9.55614e-05 21.3187 3.00678e-05 21.6204L1.06982e-05 25.0342C8.98581e-06 25.336 0.118653 25.6254 0.329843 25.8388C0.541034 26.0522 0.82747 26.1721 1.12614 26.1721L9.00909 26.1721L9.00908 27.0562C8.98458 28.4998 9.48813 29.9018 10.4232 30.9934C11.3584 32.0851 12.6593 32.7897 14.0767 32.9722C14.8595 33.0507 15.65 32.9627 16.3972 32.7139C17.1444 32.4651 17.8317 32.0611 18.4151 31.5277C18.9985 30.9944 19.465 30.3436 19.7845 29.6172C20.104 28.8908 20.2696 28.1048 20.2704 27.3099L20.2704 26.172L28.1534 26.1719C28.4521 26.1719 28.7385 26.0521 28.9497 25.8387C29.1609 25.6253 29.2795 25.3358 29.2795 25.034L29.2795 21.6203C29.2795 21.3185 29.1608 21.0291 28.9496 20.8158ZM18.0182 27.3099C18.0182 28.2153 17.6622 29.0836 17.0286 29.7238C16.3951 30.364 15.5357 30.7237 14.6397 30.7237C13.7437 30.7237 12.8844 30.364 12.2508 29.7238C11.6173 29.0836 11.2613 28.2153 11.2613 27.31L11.2614 26.172L18.0182 26.172L18.0182 27.3099ZM27.0273 23.8961L2.25229 23.8963L2.2523 22.0915L5.30076 19.0112C5.51197 18.7978 5.63066 18.5084 5.63073 18.2067L5.63075 13.655C5.63076 11.2407 6.57995 8.92519 8.26949 7.21798C9.95903 5.51076 12.2505 4.55165 14.6399 4.55164C17.0292 4.55162 19.3207 5.51071 21.0103 7.2179C22.6998 8.9251 23.6489 11.2406 23.6489 13.6549L23.6489 18.2066C23.6489 18.5083 23.7676 18.7977 23.9788 19.0111L27.0273 22.0914L27.0273 23.8961Z" fill="#100F0F"/>
</svg>
