<svg width="34" height="33" viewBox="0 0 34 33" fill="none" xmlns="http://www.w3.org/2000/svg">
<path d="M16.998 20.5012C19.408 20.5024 21.3626 18.6324 21.3637 16.3245C21.3648 14.0166 19.4121 12.1447 17.0021 12.1435C14.5922 12.1423 12.6376 14.0123 12.6364 16.3202C12.6353 18.6281 14.5881 20.5 16.998 20.5012Z" stroke="white" stroke-width="2" stroke-linecap="round" stroke-linejoin="round"/>
<path d="M27.7616 20.5065C27.5678 20.9265 27.5098 21.3925 27.5951 21.8445C27.6804 22.2964 27.9052 22.7134 28.2403 23.0419L28.3276 23.1255C28.5979 23.3844 28.8123 23.6917 28.9586 24.03C29.1048 24.3683 29.18 24.7308 29.1798 25.0969C29.1796 25.463 29.1041 25.8255 28.9575 26.1637C28.811 26.5018 28.5962 26.8089 28.3256 27.0675C28.0553 27.3264 27.7344 27.5317 27.3812 27.6718C27.0279 27.8118 26.6493 27.8838 26.2671 27.8836C25.8848 27.8834 25.5062 27.811 25.1531 27.6707C24.8001 27.5303 24.4793 27.3247 24.2093 27.0655L24.122 26.9819C23.7794 26.6606 23.3441 26.445 22.8723 26.3628C22.4005 26.2806 21.9138 26.3357 21.475 26.5209C21.0447 26.6973 20.6777 26.9903 20.419 27.3639C20.1604 27.7374 20.0215 28.1753 20.0194 28.6235L20.0193 28.8603C20.0189 29.5992 19.7121 30.3076 19.1663 30.8298C18.6205 31.352 17.8804 31.6452 17.1088 31.6448C16.3373 31.6444 15.5975 31.3505 15.0522 30.8278C14.5069 30.3051 14.2008 29.5963 14.2011 28.8575L14.2012 28.7321C14.1902 28.271 14.0345 27.8238 13.7546 27.4486C13.4746 27.0733 13.0832 26.7874 12.6313 26.628C12.1927 26.4423 11.7061 26.3868 11.2342 26.4685C10.7623 26.5502 10.3268 26.7654 9.98382 27.0863L9.8965 27.1699C9.6262 27.4288 9.30526 27.6341 8.95203 27.7741C8.59881 27.9141 8.22022 27.9861 7.83792 27.9859C7.45562 27.9857 7.07711 27.9134 6.72402 27.773C6.37093 27.6326 6.05019 27.427 5.78015 27.1679C5.5098 26.909 5.29538 26.6016 5.14915 26.2634C5.00291 25.9251 4.92774 25.5625 4.92792 25.1964C4.9281 24.8303 5.00363 24.4678 5.1502 24.1297C5.29676 23.7916 5.51148 23.4844 5.78209 23.2258L5.8694 23.1423C6.20489 22.8142 6.43004 22.3973 6.51582 21.9455C6.60159 21.4937 6.54407 21.0276 6.35065 20.6074C6.16647 20.1953 5.86049 19.8438 5.47037 19.5961C5.08026 19.3484 4.62303 19.2154 4.15498 19.2133L3.9077 19.2132C3.13617 19.2128 2.39637 18.919 1.85107 18.3962C1.30577 17.8735 0.999626 17.1648 0.99999 16.4259C1.00035 15.687 1.3072 14.9786 1.85301 14.4564C2.39883 13.9342 3.13891 13.6411 3.91045 13.6415L4.04136 13.6415C4.52281 13.631 4.98981 13.482 5.38164 13.2139C5.77347 12.9458 6.07202 12.571 6.23846 12.1382C6.43229 11.7182 6.49028 11.2522 6.40495 10.8003C6.31962 10.3484 6.09488 9.93129 5.75971 9.60284L5.67248 9.51922C5.40213 9.26035 5.18771 8.95299 5.04148 8.61472C4.89525 8.27645 4.82008 7.91389 4.82026 7.54778C4.82044 7.18167 4.89597 6.81919 5.04253 6.48107C5.1891 6.14294 5.40382 5.83579 5.67443 5.57719C5.94473 5.3183 6.26567 5.11298 6.6189 4.97295C6.97212 4.83293 7.35071 4.76095 7.73301 4.76114C8.11531 4.76133 8.49382 4.83368 8.84691 4.97405C9.2 5.11442 9.52074 5.32007 9.79078 5.57922L9.87802 5.66284C10.2207 5.98413 10.656 6.19976 11.1278 6.28193C11.5996 6.36409 12.0863 6.30902 12.5251 6.12382L12.6414 6.12387C13.0717 5.94751 13.4388 5.6545 13.6974 5.28092C13.956 4.90733 14.0949 4.46948 14.097 4.02125L14.0971 3.78445C14.0975 3.04559 14.4043 2.33714 14.9501 1.81495C15.496 1.29276 16.236 0.999617 17.0076 0.999998C17.7791 1.00038 18.5189 1.29425 19.0642 1.81698C19.6095 2.3397 19.9157 3.04845 19.9153 3.78732L19.9152 3.91268C19.9169 4.36091 20.0554 4.79891 20.3136 5.17275C20.5719 5.54659 20.9386 5.83995 21.3687 6.01674C21.8074 6.20238 22.294 6.25793 22.7659 6.17623C23.2378 6.09453 23.6733 5.87933 24.0162 5.55837L24.1036 5.47484C24.3739 5.21595 24.6948 5.01063 25.048 4.8706C25.4013 4.73058 25.7798 4.6586 26.1621 4.65879C26.5444 4.65898 26.9229 4.73133 27.276 4.8717C27.6291 5.01207 27.9499 5.21771 28.2199 5.47687C28.4903 5.73574 28.7047 6.04309 28.8509 6.38137C28.9971 6.71964 29.0723 7.08219 29.0721 7.4483C29.072 7.81441 28.9964 8.17689 28.8499 8.51502C28.7033 8.85315 28.4886 9.16029 28.218 9.4189L28.1307 9.50243C27.7952 9.83055 27.57 10.2474 27.4842 10.6992C27.3985 11.151 27.456 11.6171 27.6494 12.0373L27.6494 12.1488C27.8335 12.5609 28.1395 12.9124 28.5296 13.1601C28.9197 13.4077 29.377 13.5408 29.845 13.5428L30.0923 13.5429C30.8638 13.5433 31.6036 13.8372 32.1489 14.3599C32.6942 14.8826 33.0004 15.5914 33 16.3302C32.9996 17.0691 32.6928 17.7776 32.147 18.2997C31.6012 18.8219 30.8611 19.1151 30.0896 19.1147L29.9586 19.1146C29.4906 19.1162 29.0332 19.2488 28.6429 19.4961C28.2525 19.7434 27.9462 20.0946 27.7616 20.5065Z" stroke="white" stroke-width="2" stroke-linecap="round" stroke-linejoin="round"/>
</svg>
