<svg width="30" height="30" viewBox="0 0 30 30" fill="none" xmlns="http://www.w3.org/2000/svg">
<path d="M8.75 24.0625C10.3033 24.0625 11.5625 22.8033 11.5625 21.25C11.5625 19.6967 10.3033 18.4375 8.75 18.4375C7.1967 18.4375 5.9375 19.6967 5.9375 21.25C5.9375 22.8033 7.1967 24.0625 8.75 24.0625Z" stroke="black" stroke-opacity="0.72" stroke-width="1.5" stroke-linecap="round" stroke-linejoin="round"/>
<path d="M11.5625 21.25V8.4375C11.5625 7.05679 12.6818 5.9375 14.0625 5.9375H21.5625C22.9432 5.9375 24.0625 7.05679 24.0625 8.4375V17.5" stroke="black" stroke-opacity="0.72" stroke-width="1.5" stroke-linecap="round" stroke-linejoin="round"/>
<path d="M21.25 20.3125C22.8033 20.3125 24.0625 19.0533 24.0625 17.5C24.0625 15.9467 22.8033 14.6875 21.25 14.6875C19.6967 14.6875 18.4375 15.9467 18.4375 17.5C18.4375 19.0533 19.6967 20.3125 21.25 20.3125Z" stroke="black" stroke-opacity="0.72" stroke-width="1.5" stroke-linecap="round" stroke-linejoin="round"/>
</svg>
