<svg width="238" height="262" viewBox="0 0 238 262" fill="none" xmlns="http://www.w3.org/2000/svg">
<path d="M0.750298 202.862L45.5081 140.103C58.1996 122.307 82.4779 121.724 95.8598 138.896L135.21 189.388M101.228 145.786C118.133 122.084 141.685 88.5036 143.219 86.3188C143.273 86.2407 143.325 86.1668 143.38 86.0894C156.096 68.4079 180.296 67.8659 193.649 84.9989L232.999 135.491M33.3466 261.25H204.477C222.48 261.25 237.073 245.163 237.073 225.319V36.6813C237.073 16.8371 222.48 0.750298 204.477 0.750298H33.3466C15.3441 0.750298 0.750298 16.8371 0.750298 36.6813V225.319C0.750298 245.163 15.3441 261.25 33.3466 261.25Z" stroke="black" stroke-width="1.5" stroke-linecap="round" stroke-linejoin="round"/>
</svg>
