<svg width="21" height="20" viewBox="0 0 21 20" fill="none" xmlns="http://www.w3.org/2000/svg">
<path fill-rule="evenodd" clip-rule="evenodd" d="M14.2684 12.2862L18.989 16.7304C19.1545 16.8852 19.2475 17.0959 19.2474 17.3156C19.2473 17.5354 19.1541 17.746 18.9884 17.9006C18.8241 18.0566 18.6005 18.1442 18.3673 18.1441C18.1341 18.144 17.9106 18.0561 17.7465 17.9L13.0346 13.4475C11.8119 14.351 10.3023 14.8407 8.74843 14.8382C4.88424 14.8362 1.75314 11.883 1.75493 8.24188C1.75673 4.60076 4.89074 1.65059 8.75493 1.6525C12.6191 1.6544 15.7502 4.60765 15.7484 8.24877C15.7496 9.71292 15.2284 11.1349 14.2684 12.2862ZM8.75412 3.3007C5.85597 3.29927 3.50547 5.5119 3.50412 8.24274C3.50277 10.9736 5.8511 13.1885 8.74925 13.1899C11.6474 13.1914 13.9979 10.9788 13.9992 8.24791C14.0006 5.51707 11.6523 3.30213 8.75412 3.3007Z" fill="black"/>
</svg>
