<svg width="23" height="22" viewBox="0 0 23 22" fill="none" xmlns="http://www.w3.org/2000/svg">
<path d="M22.1593 11C22.1593 16.6523 17.3702 21.2344 11.4625 21.2344C5.55476 21.2344 0.765596 16.6523 0.765596 11C0.765596 5.3477 5.55476 0.765596 11.4625 0.765596C17.3702 0.765596 22.1593 5.3477 22.1593 11Z" stroke="black" stroke-width="1.5" stroke-linecap="round" stroke-linejoin="round"/>
<path d="M8.20691 7.36301C8.20691 7.36301 8.56864 3.55683 11.4625 3.55683C14.3563 3.55683 14.7181 5.67137 14.7181 7.36301C14.7181 8.63394 14.1054 9.90503 12.8802 10.4585C12.1349 10.7952 11.4625 11.5036 11.4625 12.4379V12.8608" stroke="black" stroke-width="1.5" stroke-linecap="round" stroke-linejoin="round"/>
<path d="M12.8577 17.5128C12.8577 18.0266 12.2329 18.4432 11.4624 18.4432C10.692 18.4432 10.0672 18.0266 10.0672 17.5128C10.0672 16.9991 10.692 16.5824 11.4624 16.5824C12.2329 16.5824 12.8577 16.9991 12.8577 17.5128Z" stroke="black" stroke-linecap="round" stroke-linejoin="round"/>
</svg>
