<svg width="22" height="27" viewBox="0 0 22 27" fill="none" xmlns="http://www.w3.org/2000/svg">
<path d="M0.76009 8.34524C0.76009 6.7972 1.78659 5.54226 3.05285 5.54226H15.0899C16.3562 5.54226 17.3826 6.7972 17.3826 8.34524V18.8564C17.3826 20.4045 16.3562 21.6594 15.0899 21.6594H12.0806L9.07136 25.8639L6.06211 21.6594H3.05285C1.78659 21.6594 0.76009 20.4045 0.76009 18.8564V8.34524Z" stroke="black" stroke-width="1.5" stroke-linecap="round" stroke-linejoin="round"/>
<path d="M5.37748 13.8556C5.37748 14.3657 5.37748 14.7793 5.37748 14.7793C5.37748 14.7793 5.37748 14.3657 5.37748 13.8556C5.37748 13.3456 5.37748 12.9319 5.37748 12.9319C5.37748 12.9319 5.37748 13.3456 5.37748 13.8556Z" stroke="white" stroke-linecap="round" stroke-linejoin="round"/>
<path d="M9.07137 13.8556C9.07137 14.3657 8.86461 14.7793 8.60964 14.7793C8.35466 14.7793 8.1479 14.3657 8.1479 13.8556C8.1479 13.3456 8.35466 12.9319 8.60964 12.9319C8.86461 12.9319 9.07137 13.3456 9.07137 13.8556Z" stroke="black" stroke-linecap="round" stroke-linejoin="round"/>
<path d="M12.3708 13.336L14.4967 12.6432L19.1452 6.2053C19.3405 5.93475 19.3405 5.4961 19.1452 5.22555L18.2269 3.95376C18.0316 3.6832 17.7148 3.6832 17.5195 3.95376L12.871 10.3917L12.3708 13.336Z" fill="black" stroke="black" stroke-width="1.5" stroke-linecap="round" stroke-linejoin="round"/>
</svg>
