<svg width="43" height="37" viewBox="0 0 43 37" fill="none" xmlns="http://www.w3.org/2000/svg">
<path fill-rule="evenodd" clip-rule="evenodd" d="M21.5072 3.85899C11.9276 3.85427 4.36236 10.5082 4.35843 18.4877C4.35675 21.8935 5.71983 25.0435 8.03331 27.5484C10.195 24.4864 13.6207 22.2811 17.3725 21.3302C15.1167 20.1296 13.5692 17.9674 13.5704 15.4113C13.5724 11.4799 17.2373 8.48378 21.505 8.48588C25.7726 8.48799 29.4346 11.4877 29.4326 15.4191C29.4314 17.9752 27.8817 20.1358 25.6248 21.3342C29.3756 22.2888 32.7992 24.4975 34.9579 27.5615C37.2738 25.059 38.6399 21.9103 38.6416 18.5046C38.6455 10.5251 31.0868 3.86371 21.5072 3.85899ZM33.8443 28.6505C31.2542 24.8112 26.3865 22.3469 21.4982 22.3445C16.6098 22.3421 11.7397 24.8016 9.14583 28.6384C12.2536 31.398 16.6276 33.1309 21.4928 33.1333C26.358 33.1357 30.7338 31.4071 33.8443 28.6505ZM2.82347 18.4869C2.82793 9.45091 11.3058 2.31901 21.508 2.32403C31.7102 2.32906 40.181 9.46932 40.1766 18.5053C40.1744 22.911 38.1409 26.8843 34.8838 29.7802C31.4797 32.8068 26.7286 34.6708 21.492 34.6682C16.2555 34.6657 11.5062 32.797 8.10514 29.767C4.8509 26.8679 2.8213 22.8926 2.82347 18.4869ZM21.5042 10.0208C17.8591 10.019 15.1068 12.5372 15.1054 15.4121C15.104 18.2869 17.8538 20.8078 21.4989 20.8096C25.1439 20.8114 27.8963 18.2932 27.8977 15.4184C27.8991 12.5435 25.1493 10.0226 21.5042 10.0208Z" fill="white"/>
</svg>
